<svg width="30" height="30" viewBox="0 0 30 30" fill="none" xmlns="http://www.w3.org/2000/svg">
<path d="M29.6673 7.00004V1.66671C29.6673 1.31309 29.5268 0.973946 29.2768 0.723897C29.0267 0.473849 28.6876 0.333374 28.334 0.333374H1.66732C1.3137 0.333374 0.974556 0.473849 0.724508 0.723897C0.474459 0.973946 0.333984 1.31309 0.333984 1.66671V7.00004H29.6673Z" fill="#2EC5CE"/>
<path d="M0.333984 9.66675V28.3334C0.333984 28.687 0.474459 29.0262 0.724508 29.2762C0.974556 29.5263 1.3137 29.6667 1.66732 29.6667H8.33398V9.66675H0.333984Z" fill="#D6B1FF"/>
<path d="M11 29.6667H28.3333C28.687 29.6667 29.0261 29.5263 29.2761 29.2762C29.5262 29.0262 29.6667 28.687 29.6667 28.3334V9.66675H11V29.6667Z" fill="#8C30F5"/>
</svg>
